<svg version="1.1" id="Layer_1" xmlns="http://www.w3.org/2000/svg" xmlns:xlink="http://www.w3.org/1999/xlink" x="177px" y="150px"
	 width="100%" viewBox="0 0 400 400" enable-background="new 0 0 400 400" xml:space="preserve">
<path fill="#010101" opacity="1.000000" stroke="none" 
	d="
M179.000000,0.999999 
	C192.687561,1.000000 206.375122,1.000000 220.677200,1.380076 
	C225.229172,2.314311 229.182785,2.773240 233.101562,3.437552 
	C267.429230,9.256777 298.450714,22.646088 325.560944,44.575706 
	C363.760101,75.475212 387.874146,114.990005 397.260040,163.337875 
	C398.531464,169.887100 399.754547,176.445724 401.000000,183.000000 
	C401.000000,185.370560 401.000000,187.741104 400.696350,190.709290 
	C400.272369,192.193298 400.152039,193.079712 400.009827,194.431396 
	C400.024658,198.962250 400.061371,203.027817 400.071228,207.455978 
	C400.362915,208.879044 400.681458,209.939514 401.000000,211.000000 
	C401.000000,213.700012 401.000000,216.400024 400.624176,219.692719 
	C399.751770,223.899979 399.337769,227.528122 398.745789,231.127014 
	C392.890961,266.720825 379.191650,298.883148 356.216827,326.823822 
	C325.450928,364.239502 286.376343,387.955902 238.692535,397.178192 
	C231.484909,398.572174 224.231979,399.731934 217.000000,401.000000 
	C215.285645,401.000000 213.571289,401.000000 211.251968,400.686249 
	C209.464371,400.283508 208.281723,400.194550 206.631470,400.061432 
	C202.097031,400.023163 198.030197,400.028992 193.551880,400.022705 
	C191.426926,400.340332 189.713455,400.670166 188.000000,401.000000 
	C186.285645,401.000000 184.571289,401.000000 182.284027,400.624023 
	C172.577179,398.638153 163.239746,397.764099 154.340973,395.303619 
	C71.782875,372.476440 21.565672,319.089783 3.886417,235.200150 
	C3.024910,231.112228 1.966644,227.065765 1.000001,223.000000 
	C1.000000,208.645767 1.000000,194.291550 1.375177,179.337494 
	C3.362878,170.279205 4.361786,161.648285 6.683076,153.389008 
	C29.290356,72.950943 81.248459,23.175766 162.862762,4.607776 
	C168.237259,3.385028 173.620712,2.201674 179.000000,0.999999 
M259.547119,217.098358 
	C298.995026,217.098358 338.442902,217.098358 378.040588,217.098358 
	C378.040588,204.555283 378.040588,192.485870 378.040588,180.253448 
	C373.414001,180.253448 369.006775,180.253448 364.057739,180.253448 
	C364.057739,188.223450 364.057739,195.944489 364.057739,203.553436 
	C330.640076,203.553436 297.768494,203.553436 264.415833,203.553436 
	C264.415833,189.109543 264.415833,175.043106 264.415833,161.003845 
	C221.703476,161.003845 179.476578,161.003845 136.771835,161.003845 
	C136.771835,175.357513 136.771835,189.408035 136.771835,203.322052 
	C103.544762,203.322052 70.797791,203.322052 37.643696,203.322052 
	C37.643696,189.075226 37.643696,175.136597 37.643696,161.082520 
	C32.700459,161.082520 28.173407,161.082520 23.609171,161.082520 
	C23.609171,179.896973 23.609171,198.321884 23.609171,216.774506 
	C66.280670,216.774506 108.682449,216.774506 151.437714,216.774506 
	C151.437714,212.671890 151.437714,208.893677 151.437714,205.046692 
	C184.517670,205.046692 217.241760,205.046692 250.330811,205.046692 
	C250.330811,209.114197 250.330811,212.889725 250.330811,217.098282 
	C253.314804,217.098282 255.938950,217.098282 259.547119,217.098358 
M271.309357,307.399933 
	C271.309357,309.862823 271.309357,312.325714 271.309357,315.170135 
	C273.206299,314.966553 274.566132,314.820618 276.227112,314.642365 
	C276.227112,309.992859 276.227112,305.790771 276.227112,301.674835 
	C282.063049,305.441772 281.157928,316.639465 291.850189,314.882568 
	C291.850189,307.578491 291.850189,300.472870 291.850189,293.014862 
	C290.342194,293.095337 288.994751,293.167236 287.148651,293.265778 
	C287.148651,297.959412 287.148651,302.291779 287.148651,306.554993 
	C281.028748,302.914886 282.233032,291.468292 271.343445,293.203918 
	C271.343445,297.814117 271.343445,302.123596 271.309357,307.399933 
M127.231232,256.617523 
	C127.231232,259.503876 127.231232,262.390228 127.231232,265.409790 
	C121.070091,261.524689 122.121132,250.100052 111.299492,252.073639 
	C111.299492,259.389801 111.299492,266.490387 111.299492,273.714661 
	C112.854858,273.714661 114.217606,273.714661 116.003677,273.714661 
	C116.003677,269.038513 116.003677,264.665283 116.003677,260.379761 
	C122.154053,263.961914 121.087128,275.550018 131.741669,273.866272 
	C131.741669,266.294159 131.741669,259.184540 131.741669,252.083908 
	C127.587143,252.017365 127.587143,252.017365 127.231232,256.617523 
M115.562393,311.785522 
	C120.409233,316.706085 126.465393,317.402557 131.642441,313.634796 
	C136.010040,310.456146 137.538010,303.013550 134.901779,297.758850 
	C132.704330,293.378754 126.852890,291.286194 121.465256,292.953735 
	C114.460289,295.121918 111.785088,302.824615 115.562393,311.785522 
M193.750656,313.359863 
	C194.891922,311.595795 196.305817,309.948303 197.119980,308.044403 
	C199.055878,303.517212 198.211502,299.116333 194.991974,295.580261 
	C191.792572,292.066284 187.429260,291.624847 183.059418,293.042419 
	C178.324677,294.578308 175.885910,298.201904 175.382553,303.032715 
	C174.931747,307.359161 175.852463,311.437408 179.647141,314.017975 
	C184.058350,317.017731 188.676941,316.533417 193.750656,313.359863 
M225.040176,296.719727 
	C225.040176,302.667938 225.040176,308.616119 225.040176,315.031250 
	C228.373703,315.031250 231.466583,315.587280 234.229095,314.870361 
	C236.841431,314.192413 240.015839,312.699982 241.232605,310.582825 
	C242.179123,308.935913 240.496262,305.777863 239.837723,302.593781 
	C241.744644,300.696930 242.948868,297.583344 239.616531,294.491425 
	C236.900406,291.971222 226.586441,292.389069 225.094772,294.779785 
	C224.942276,295.024200 225.053101,295.432892 225.040176,296.719727 
M247.980621,264.468994 
	C247.980621,267.568176 247.980621,270.667358 247.980621,273.693176 
	C258.436890,274.555176 264.256409,272.931580 266.578217,268.374451 
	C268.745178,264.121246 269.145264,259.542419 266.055359,255.660126 
	C261.145355,249.490952 254.295044,252.556992 247.980621,251.833344 
	C247.980621,256.191040 247.980621,259.838531 247.980621,264.468994 
M105.398376,294.876709 
	C100.365799,294.042908 95.333214,293.209137 90.322052,292.378876 
	C90.322052,300.850281 90.322052,307.901093 90.322052,315.003845 
	C97.363388,314.880493 104.877167,316.782410 108.626190,308.870697 
	C110.920952,304.027954 110.384132,299.140625 105.398376,294.876709 
M193.983597,264.472473 
	C193.983597,267.582489 193.983597,270.692474 193.983597,274.067688 
	C195.880676,273.952637 197.283203,273.867584 199.029190,273.761719 
	C199.029190,271.090057 199.029190,268.722778 199.029190,266.005585 
	C203.181900,268.570862 203.454224,276.338440 210.734131,273.443817 
	C208.484482,270.362793 206.348114,267.436890 204.166077,264.448425 
	C205.113632,263.954437 206.368134,263.724152 206.763855,263.014801 
	C207.959320,260.871826 209.990509,258.223694 209.486038,256.375702 
	C208.976913,254.510651 206.001953,252.617004 203.785370,252.090073 
	C200.729507,251.363647 197.371582,251.907990 193.983124,251.907990 
	C193.983124,256.220734 193.983124,259.855072 193.983597,264.472473 
M103.961258,252.795441 
	C102.542427,252.427460 101.123596,252.059479 99.115433,251.538651 
	C99.115433,256.578430 99.059860,260.871887 99.132790,265.163147 
	C99.192451,268.673553 97.584976,270.494781 94.065369,270.410187 
	C90.642601,270.327881 88.935844,268.515778 88.976555,265.050873 
	C89.013702,261.888794 88.996643,258.725800 88.973488,255.563400 
	C88.965202,254.431259 88.869270,253.299759 88.798401,251.865631 
	C87.158554,251.959305 85.780991,252.037994 84.130203,252.132278 
	C84.130203,256.981110 83.971924,261.458740 84.169304,265.920654 
	C84.430138,271.817078 87.720146,274.532196 94.101913,274.479309 
	C100.338554,274.427612 103.768890,271.451538 103.951614,265.728210 
	C104.079025,261.737488 103.982635,257.739624 103.961258,252.795441 
M309.150635,273.009827 
	C315.716492,269.879761 318.149445,264.571167 316.010590,258.041779 
	C314.127594,252.293442 306.776855,250.185852 297.180115,252.555878 
	C297.180115,259.654327 297.180115,266.708282 297.180115,274.379883 
	C301.187592,273.941071 304.762878,273.549561 309.150635,273.009827 
M278.925812,251.867340 
	C275.785248,259.023773 272.644714,266.180237 269.504150,273.336670 
	C269.957520,273.792114 270.410919,274.247589 270.864288,274.703033 
	C272.387787,273.616882 273.796143,271.874756 275.459045,271.582886 
	C278.795685,270.997284 282.336151,270.764709 285.664032,271.256226 
	C287.512390,271.529175 289.101776,273.555908 290.807861,274.792206 
	C291.139526,274.362335 291.471161,273.932465 291.802795,273.502625 
	C289.529785,267.477386 287.043152,261.520813 285.076050,255.397339 
	C284.125732,252.438995 282.658569,251.352600 278.925812,251.867340 
M266.172302,314.663239 
	C263.836975,308.142609 261.592712,301.586365 259.069214,295.139374 
	C258.685883,294.160004 256.967957,293.070892 255.936172,293.135315 
	C254.605667,293.218414 252.613007,294.111176 252.173584,295.177673 
	C249.544327,301.559143 247.279648,308.090790 244.892715,314.572083 
	C245.264969,314.973297 245.637238,315.374542 246.009506,315.775757 
	C247.477783,314.615356 248.837143,312.681244 250.437073,312.456055 
	C253.741241,311.990997 258.121246,311.218658 260.260956,312.883392 
	C262.053986,314.278412 263.345612,315.028656 266.172302,314.663239 
M79.919006,301.564026 
	C77.709145,298.112213 79.041855,290.998138 71.124619,293.301575 
	C68.492752,300.318909 65.819038,307.447784 62.691811,315.785889 
	C67.162018,313.856079 70.480255,311.268555 73.751976,311.326080 
	C77.237022,311.387421 80.678040,313.951263 85.255058,315.897339 
	C83.204773,310.536865 81.635536,306.434113 79.919006,301.564026 
M161.945496,273.828735 
	C164.842926,266.713318 167.740341,259.597900 170.682327,252.373077 
	C167.355347,251.355469 165.572769,251.717377 164.576019,254.996445 
	C163.347305,259.038605 161.434143,262.872742 159.561081,267.417084 
	C158.099854,263.477264 156.919617,260.240021 155.699585,257.017822 
	C153.568710,251.389923 153.558456,251.393814 148.841705,252.687668 
	C151.078110,258.551025 153.554794,264.323029 155.441452,270.281799 
	C156.451950,273.473297 158.086685,274.538727 161.945496,273.828735 
M333.875488,314.911560 
	C334.152374,313.708008 334.429260,312.504456 334.860840,310.628357 
	C330.882477,310.628357 327.884094,310.628357 324.381348,310.628357 
	C326.740387,307.352783 328.786591,304.751648 330.561676,301.977051 
	C332.215302,299.392334 333.580444,296.623016 335.467346,293.223755 
	C328.919861,293.223755 323.859344,293.223755 318.225861,293.223755 
	C319.214447,300.356415 325.609344,294.798401 327.855164,297.805969 
	C325.111237,303.677582 319.122742,307.759552 317.719330,315.029053 
	C323.379364,315.029053 328.178284,315.029053 333.875488,314.911560 
M225.284882,261.092804 
	C223.545425,259.820587 221.805954,258.548401 220.066498,257.276184 
	C222.484528,256.174072 224.902557,255.071960 228.288223,253.528809 
	C227.487198,252.807083 226.621765,251.362274 225.517670,251.148163 
	C220.851471,250.243271 216.179916,252.465118 215.198746,256.005066 
	C213.788742,261.092255 216.961472,263.237671 221.148956,264.570740 
	C221.460251,264.669830 221.823410,264.792938 222.022446,265.024963 
	C222.814560,265.948486 223.551117,266.919586 224.308258,267.873077 
	C223.231339,268.710541 222.259430,269.983643 221.050873,270.274963 
	C219.548721,270.636993 217.850983,270.187469 215.989883,270.073242 
	C215.989883,271.522095 215.989883,272.731140 215.989883,273.900208 
	C223.074402,274.962646 227.344559,273.684357 228.857056,269.877136 
	C230.255112,266.357971 229.491760,263.370605 225.284882,261.092804 
M364.058075,169.288589 
	C364.136780,170.562347 364.215485,171.836105 364.301788,173.232956 
	C369.002502,173.232956 373.400909,173.232956 377.760071,173.232956 
	C377.760071,168.811615 377.760071,164.721512 377.760071,160.581024 
	C373.090759,160.581024 368.708466,160.581024 364.065948,160.581024 
	C364.065948,163.399490 364.065948,165.880402 364.058075,169.288589 
M179.876465,269.410706 
	C179.876465,267.677124 179.876465,265.943512 179.876465,264.250977 
	C182.815552,264.093506 185.080551,263.972168 188.190186,263.805573 
	C186.421463,259.127869 182.449081,261.936035 180.050064,260.346558 
	C180.050064,258.805420 180.050064,257.107666 180.050064,255.071091 
	C182.132202,255.071091 183.956955,255.248688 185.718277,254.991653 
	C186.525894,254.873779 187.208862,253.901871 187.948349,253.317261 
	C187.257706,252.828217 186.583038,251.945312 185.873703,251.916504 
	C182.307480,251.771774 178.732208,251.850113 175.194672,251.850113 
	C175.194672,259.549835 175.194672,266.611938 175.194672,273.815491 
	C179.480957,273.815491 183.548172,273.815491 187.615402,273.815491 
	C187.888138,273.407715 188.160873,272.999908 188.433609,272.592133 
	C187.321335,271.739563 186.322662,270.537811 185.066025,270.129059 
	C183.710236,269.687988 182.113068,269.988831 179.876465,269.410706 
M299.802917,310.428223 
	C299.802917,311.860046 299.802917,313.291901 299.802917,314.667542 
	C304.506531,314.667542 308.681549,314.667542 312.856567,314.667542 
	C312.978424,314.064117 313.100311,313.460724 313.222168,312.857300 
	C310.323700,312.297363 307.425232,311.737427 304.412323,311.155396 
	C304.363434,310.326721 304.297394,309.511414 304.272369,308.694885 
	C304.248444,307.913269 304.267212,307.130310 304.267212,306.416901 
	C311.970764,305.227081 311.970764,305.227081 311.110352,301.754150 
	C308.966949,301.754150 306.727783,301.754150 304.207062,301.754150 
	C304.334351,299.931244 304.432037,298.531952 304.525604,297.191833 
	C312.729919,296.431305 312.729919,296.431305 312.237122,293.266449 
	C308.141449,293.266449 304.065582,293.266449 299.806091,293.266449 
	C299.806091,298.850159 299.806091,304.144684 299.802917,310.428223 
M163.382095,299.392456 
	C163.356247,295.125885 166.609177,297.180420 168.457565,296.922546 
	C171.427628,296.508240 171.454056,296.697662 171.102676,293.184448 
	C167.183777,293.184448 163.261459,293.184448 159.124146,293.184448 
	C159.124146,300.448120 159.124146,307.513519 159.124146,314.969879 
	C160.540665,314.892365 161.858368,314.820282 163.480164,314.731537 
	C163.480164,311.707886 163.480164,309.094513 163.480164,306.277527 
	C165.097351,306.192688 166.444717,306.308258 167.688843,306.002991 
	C168.871796,305.712708 169.946823,304.982544 171.069305,304.445831 
	C169.935181,303.904480 168.779404,303.403625 167.672318,302.811707 
	C166.221207,302.035828 164.808548,301.188080 163.382095,299.392456 
M145.992050,307.336853 
	C145.992050,302.583740 145.992050,297.830597 145.992050,292.801483 
	C143.998001,293.026428 142.608536,293.183197 141.411072,293.318268 
	C141.411072,300.765411 141.411072,307.804199 141.411072,314.794281 
	C145.649063,314.794281 149.563248,314.794281 153.392181,314.794281 
	C154.558899,311.292755 152.752411,310.985504 150.193893,311.019623 
	C148.345520,311.044250 145.478149,312.116760 145.992050,307.336853 
M235.363068,265.429535 
	C235.363068,268.201630 235.363068,270.973724 235.363068,274.093323 
	C237.271057,273.949371 238.626923,273.847076 239.883911,273.752228 
	C239.883911,266.250275 239.883911,259.191528 239.883911,251.766785 
	C238.282761,251.923126 236.934875,252.054733 235.363129,252.208206 
	C235.363129,256.557526 235.363129,260.506470 235.363068,265.429535 
M143.356277,273.948822 
	C143.696594,266.672363 144.036911,259.395935 144.392105,251.801331 
	C142.266525,251.978775 141.029617,252.082031 139.593140,252.201950 
	C139.593140,258.743622 139.476547,265.008331 139.717987,271.259186 
	C139.754456,272.203888 141.458435,273.084229 143.356277,273.948822 
M212.899872,308.428650 
	C212.899872,310.526184 212.899872,312.623688 212.899872,315.002899 
	C214.652374,314.900970 215.870453,314.830109 217.037354,314.762238 
	C217.037354,307.387665 217.037354,300.351868 217.037354,293.021729 
	C215.532623,293.112152 214.322006,293.184937 212.899872,293.270386 
	C212.899872,298.214905 212.899872,302.828583 212.899872,308.428650 
M276.391510,285.376923 
	C275.798157,286.489410 275.204803,287.601868 274.483612,288.953979 
	C279.930420,289.401764 284.313660,289.762085 288.696869,290.122406 
	C288.865234,289.236176 289.033600,288.349945 289.201935,287.463715 
	C285.172150,286.663727 281.142334,285.863739 276.391510,285.376923 
M252.751953,289.189087 
	C256.640015,292.593475 257.893372,287.350891 261.233856,287.139008 
	C260.230499,285.757599 259.610748,284.904327 258.789764,283.773956 
	C256.544495,285.426880 254.457687,286.963135 252.751953,289.189087 
z"/>
<path fill="#FEFEFE" opacity="1.000000" stroke="none" 
	d="
M217.468658,401.000000 
	C224.231979,399.731934 231.484909,398.572174 238.692535,397.178192 
	C286.376343,387.955902 325.450928,364.239502 356.216827,326.823822 
	C379.191650,298.883148 392.890961,266.720825 398.745789,231.127014 
	C399.337769,227.528122 399.751770,223.899979 400.624176,220.142700 
	C401.000000,280.260956 401.000000,340.521912 401.000000,401.000000 
	C339.979279,401.000000 278.958282,401.000000 217.468658,401.000000 
z"/>
<path fill="#FEFEFE" opacity="1.000000" stroke="none" 
	d="
M401.000000,182.531342 
	C399.754547,176.445724 398.531464,169.887100 397.260040,163.337875 
	C387.874146,114.990005 363.760101,75.475212 325.560944,44.575706 
	C298.450714,22.646088 267.429230,9.256777 233.101562,3.437552 
	C229.182785,2.773240 225.229172,2.314311 221.145859,1.380076 
	C280.927429,1.000000 340.854828,1.000000 401.000000,1.000000 
	C401.000000,61.354053 401.000000,121.708366 401.000000,182.531342 
z"/>
<path fill="#FEFEFE" opacity="1.000000" stroke="none" 
	d="
M1.000001,223.468658 
	C1.966644,227.065765 3.024910,231.112228 3.886417,235.200150 
	C21.565672,319.089783 71.782875,372.476440 154.340973,395.303619 
	C163.239746,397.764099 172.577179,398.638153 181.855560,400.624023 
	C121.740257,401.000000 61.480511,401.000000 1.000000,401.000000 
	C1.000000,341.979279 1.000000,282.958313 1.000001,223.468658 
z"/>
<path fill="#FEFEFE" opacity="1.000000" stroke="none" 
	d="
M178.531342,0.999999 
	C173.620712,2.201674 168.237259,3.385028 162.862762,4.607776 
	C81.248459,23.175766 29.290356,72.950943 6.683076,153.389008 
	C4.361786,161.648285 3.362878,170.279205 1.375177,178.868835 
	C1.000000,119.739647 1.000000,60.479294 1.000000,1.000000 
	C60.020714,1.000000 119.041702,1.000000 178.531342,0.999999 
z"/>
<path fill="#252525" opacity="1.000000" stroke="none" 
	d="
M400.098083,207.093399 
	C400.061371,203.027817 400.024658,198.962250 400.251160,194.457886 
	C400.514435,194.019089 401.000000,194.000000 401.000000,194.000000 
	C401.000000,198.024918 401.000000,202.049850 400.773560,206.551605 
	C400.547150,207.028458 400.098083,207.093399 400.098083,207.093399 
z"/>
<path fill="#252525" opacity="1.000000" stroke="none" 
	d="
M193.963379,400.034851 
	C198.030197,400.028992 202.097031,400.023163 206.594635,400.283447 
	C207.025406,400.549591 207.000000,401.000000 207.000000,401.000000 
	C202.975082,401.000000 198.950150,401.000000 194.478348,400.757751 
	C194.031464,400.515533 193.963379,400.034851 193.963379,400.034851 
z"/>
<path fill="#535353" opacity="1.000000" stroke="none" 
	d="
M193.551880,400.022705 
	C193.963379,400.034851 194.031464,400.515533 194.015732,400.757751 
	C192.285645,401.000000 190.571289,401.000000 188.428467,401.000000 
	C189.713455,400.670166 191.426926,400.340332 193.551880,400.022705 
z"/>
<path fill="#535353" opacity="1.000000" stroke="none" 
	d="
M400.071228,207.455978 
	C400.098083,207.093399 400.547150,207.028458 400.773560,207.014221 
	C401.000000,208.066666 401.000000,209.133347 401.000000,210.600006 
	C400.681458,209.939514 400.362915,208.879044 400.071228,207.455978 
z"/>
<path fill="#535353" opacity="1.000000" stroke="none" 
	d="
M207.399994,401.000000 
	C207.000000,401.000000 207.025406,400.549591 207.062256,400.327576 
	C208.281723,400.194550 209.464371,400.283508 210.823502,400.686249 
	C209.933334,401.000000 208.866653,401.000000 207.399994,401.000000 
z"/>
<path fill="#535353" opacity="1.000000" stroke="none" 
	d="
M401.000000,193.625000 
	C401.000000,194.000000 400.514435,194.019089 400.273071,193.992599 
	C400.152039,193.079712 400.272369,192.193298 400.696350,191.153442 
	C401.000000,191.750000 401.000000,192.500000 401.000000,193.625000 
z"/>
<path fill="#FBFBFB" opacity="1.000000" stroke="none" 
	d="
M259.055115,217.098328 
	C255.938950,217.098282 253.314804,217.098282 250.330811,217.098282 
	C250.330811,212.889725 250.330811,209.114197 250.330811,205.046692 
	C217.241760,205.046692 184.517670,205.046692 151.437714,205.046692 
	C151.437714,208.893677 151.437714,212.671890 151.437714,216.774506 
	C108.682449,216.774506 66.280670,216.774506 23.609171,216.774506 
	C23.609171,198.321884 23.609171,179.896973 23.609171,161.082520 
	C28.173407,161.082520 32.700459,161.082520 37.643696,161.082520 
	C37.643696,175.136597 37.643696,189.075226 37.643696,203.322052 
	C70.797791,203.322052 103.544762,203.322052 136.771835,203.322052 
	C136.771835,189.408035 136.771835,175.357513 136.771835,161.003845 
	C179.476578,161.003845 221.703476,161.003845 264.415833,161.003845 
	C264.415833,175.043106 264.415833,189.109543 264.415833,203.553436 
	C297.768494,203.553436 330.640076,203.553436 364.057739,203.553436 
	C364.057739,195.944489 364.057739,188.223450 364.057739,180.253448 
	C369.006775,180.253448 373.414001,180.253448 378.040588,180.253448 
	C378.040588,192.485870 378.040588,204.555283 378.040588,217.098358 
	C338.442902,217.098358 298.995026,217.098358 259.055115,217.098328 
M200.500015,174.060852 
	C184.235931,174.060852 167.971863,174.060852 151.484985,174.060852 
	C151.484985,179.786804 151.484985,185.004089 151.484985,190.521973 
	C184.470886,190.521973 217.168732,190.521973 250.030090,190.521973 
	C250.030090,185.008408 250.030090,179.757645 250.030090,174.060852 
	C233.712265,174.060852 217.606140,174.060852 200.500015,174.060852 
z"/>
<path fill="#EBEBEB" opacity="1.000000" stroke="none" 
	d="
M271.326416,306.916504 
	C271.343445,302.123596 271.343445,297.814117 271.343445,293.203918 
	C282.233032,291.468292 281.028748,302.914886 287.148651,306.554993 
	C287.148651,302.291779 287.148651,297.959412 287.148651,293.265778 
	C288.994751,293.167236 290.342194,293.095337 291.850189,293.014862 
	C291.850189,300.472870 291.850189,307.578491 291.850189,314.882568 
	C281.157928,316.639465 282.063049,305.441772 276.227112,301.674835 
	C276.227112,305.790771 276.227112,309.992859 276.227112,314.642365 
	C274.566132,314.820618 273.206299,314.966553 271.309357,315.170135 
	C271.309357,312.325714 271.309357,309.862823 271.326416,306.916504 
z"/>
<path fill="#EBEBEB" opacity="1.000000" stroke="none" 
	d="
M127.232040,256.155701 
	C127.587143,252.017365 127.587143,252.017365 131.741669,252.083908 
	C131.741669,259.184540 131.741669,266.294159 131.741669,273.866272 
	C121.087128,275.550018 122.154053,263.961914 116.003677,260.379761 
	C116.003677,264.665283 116.003677,269.038513 116.003677,273.714661 
	C114.217606,273.714661 112.854858,273.714661 111.299492,273.714661 
	C111.299492,266.490387 111.299492,259.389801 111.299492,252.073639 
	C122.121132,250.100052 121.070091,261.524689 127.231232,265.409790 
	C127.231232,262.390228 127.231232,259.503876 127.232040,256.155701 
z"/>
<path fill="#EEEEEE" opacity="1.000000" stroke="none" 
	d="
M115.355888,311.462341 
	C111.785088,302.824615 114.460289,295.121918 121.465256,292.953735 
	C126.852890,291.286194 132.704330,293.378754 134.901779,297.758850 
	C137.538010,303.013550 136.010040,310.456146 131.642441,313.634796 
	C126.465393,317.402557 120.409233,316.706085 115.355888,311.462341 
M122.106171,297.158600 
	C118.274612,299.667328 117.877548,303.535858 119.174034,307.202606 
	C119.849899,309.114105 122.293701,311.269409 124.233650,311.603516 
	C125.934601,311.896484 129.278992,310.164032 129.716141,308.682587 
	C130.573654,305.776459 130.676575,302.115265 129.574219,299.377625 
	C128.982727,297.908722 125.239845,297.708771 122.106171,297.158600 
z"/>
<path fill="#EEEEEE" opacity="1.000000" stroke="none" 
	d="
M193.443176,313.588562 
	C188.676941,316.533417 184.058350,317.017731 179.647141,314.017975 
	C175.852463,311.437408 174.931747,307.359161 175.382553,303.032715 
	C175.885910,298.201904 178.324677,294.578308 183.059418,293.042419 
	C187.429260,291.624847 191.792572,292.066284 194.991974,295.580261 
	C198.211502,299.116333 199.055878,303.517212 197.119980,308.044403 
	C196.305817,309.948303 194.891922,311.595795 193.443176,313.588562 
M188.000412,311.654358 
	C192.133957,310.135498 193.653305,306.737640 192.694916,302.951019 
	C192.114197,300.656555 190.024872,297.857391 187.924789,297.027710 
	C184.132462,295.529419 180.907944,298.503143 180.210571,303.106415 
	C179.499344,307.801086 182.115280,311.040192 188.000412,311.654358 
z"/>
<path fill="#F0F0F0" opacity="1.000000" stroke="none" 
	d="
M225.040955,296.242554 
	C225.053101,295.432892 224.942276,295.024200 225.094772,294.779785 
	C226.586441,292.389069 236.900406,291.971222 239.616531,294.491425 
	C242.948868,297.583344 241.744644,300.696930 239.837723,302.593781 
	C240.496262,305.777863 242.179123,308.935913 241.232605,310.582825 
	C240.015839,312.699982 236.841431,314.192413 234.229095,314.870361 
	C231.466583,315.587280 228.373703,315.031250 225.040176,315.031250 
	C225.040176,308.616119 225.040176,302.667938 225.040955,296.242554 
M233.619324,302.437317 
	C234.582550,301.045258 235.545761,299.653229 236.509003,298.261200 
	C234.517914,297.462128 232.526825,296.663086 230.535721,295.864014 
	C230.306519,296.287262 230.077301,296.710510 229.848099,297.133789 
	C231.143265,298.866913 227.146301,303.116455 233.619324,302.437317 
M233.173294,305.863770 
	C227.607193,305.455414 230.773056,309.369934 230.011642,311.340210 
	C230.298264,311.755707 230.584885,312.171234 230.871506,312.586731 
	C232.849915,311.610870 234.828323,310.635010 236.806732,309.659119 
	C235.882111,308.412140 234.957489,307.165192 233.173294,305.863770 
z"/>
<path fill="#F3F3F3" opacity="1.000000" stroke="none" 
	d="
M247.980621,263.977509 
	C247.980621,259.838531 247.980621,256.191040 247.980621,251.833344 
	C254.295044,252.556992 261.145355,249.490952 266.055359,255.660126 
	C269.145264,259.542419 268.745178,264.121246 266.578217,268.374451 
	C264.256409,272.931580 258.436890,274.555176 247.980621,273.693176 
	C247.980621,270.667358 247.980621,267.568176 247.980621,263.977509 
M262.138214,258.607178 
	C259.999847,255.137909 256.762878,254.938644 253.165710,255.187347 
	C253.165710,260.351532 253.165710,265.084778 253.165710,269.803436 
	C261.387146,270.106293 263.767242,267.346497 262.138214,258.607178 
z"/>
<path fill="#F3F3F3" opacity="1.000000" stroke="none" 
	d="
M105.742310,295.059082 
	C110.384132,299.140625 110.920952,304.027954 108.626190,308.870697 
	C104.877167,316.782410 97.363388,314.880493 90.322052,315.003845 
	C90.322052,307.901093 90.322052,300.850281 90.322052,292.378876 
	C95.333214,293.209137 100.365799,294.042908 105.742310,295.059082 
M102.851562,298.475616 
	C100.203041,297.804626 97.554527,297.133636 94.588470,296.382172 
	C94.588470,301.969452 94.588470,306.373657 94.588470,312.267487 
	C97.940628,310.930298 101.247177,310.499664 103.153801,308.636444 
	C105.819717,306.031219 105.456703,302.343018 102.851562,298.475616 
z"/>
<path fill="#F2F2F2" opacity="1.000000" stroke="none" 
	d="
M193.983368,263.980957 
	C193.983124,259.855072 193.983124,256.220734 193.983124,251.907990 
	C197.371582,251.907990 200.729507,251.363647 203.785370,252.090073 
	C206.001953,252.617004 208.976913,254.510651 209.486038,256.375702 
	C209.990509,258.223694 207.959320,260.871826 206.763855,263.014801 
	C206.368134,263.724152 205.113632,263.954437 204.166077,264.448425 
	C206.348114,267.436890 208.484482,270.362793 210.734131,273.443817 
	C203.454224,276.338440 203.181900,268.570862 199.029190,266.005585 
	C199.029190,268.722778 199.029190,271.090057 199.029190,273.761719 
	C197.283203,273.867584 195.880676,273.952637 193.983597,274.067688 
	C193.983597,270.692474 193.983597,267.582489 193.983368,263.980957 
M200.251785,261.809998 
	C201.809357,260.489197 203.366943,259.168427 204.924530,257.847656 
	C203.224152,256.726715 201.523773,255.605759 199.823395,254.484802 
	C199.452164,254.814484 199.080948,255.144180 198.709717,255.473862 
	C198.950012,257.545746 199.190308,259.617645 200.251785,261.809998 
z"/>
<path fill="#EDEDED" opacity="1.000000" stroke="none" 
	d="
M103.973740,253.270203 
	C103.982635,257.739624 104.079025,261.737488 103.951614,265.728210 
	C103.768890,271.451538 100.338554,274.427612 94.101913,274.479309 
	C87.720146,274.532196 84.430138,271.817078 84.169304,265.920654 
	C83.971924,261.458740 84.130203,256.981110 84.130203,252.132278 
	C85.780991,252.037994 87.158554,251.959305 88.798401,251.865631 
	C88.869270,253.299759 88.965202,254.431259 88.973488,255.563400 
	C88.996643,258.725800 89.013702,261.888794 88.976555,265.050873 
	C88.935844,268.515778 90.642601,270.327881 94.065369,270.410187 
	C97.584976,270.494781 99.192451,268.673553 99.132790,265.163147 
	C99.059860,260.871887 99.115433,256.578430 99.115433,251.538651 
	C101.123596,252.059479 102.542427,252.427460 103.973740,253.270203 
z"/>
<path fill="#F5F5F5" opacity="1.000000" stroke="none" 
	d="
M308.744385,273.083923 
	C304.762878,273.549561 301.187592,273.941071 297.180115,274.379883 
	C297.180115,266.708282 297.180115,259.654327 297.180115,252.555878 
	C306.776855,250.185852 314.127594,252.293442 316.010590,258.041779 
	C318.149445,264.571167 315.716492,269.879761 308.744385,273.083923 
M301.216064,264.361084 
	C301.216064,266.132904 301.216064,267.904724 301.216064,271.442444 
	C305.075378,269.555359 308.832703,268.882202 310.235443,266.697327 
	C311.576324,264.608856 311.534058,260.220856 310.141754,258.178253 
	C308.692352,256.051910 304.900269,255.522400 301.215668,253.888000 
	C301.215668,258.190460 301.215668,260.811646 301.216064,264.361084 
z"/>
<path fill="#EDEDED" opacity="1.000000" stroke="none" 
	d="
M279.342529,251.862152 
	C282.658569,251.352600 284.125732,252.438995 285.076050,255.397339 
	C287.043152,261.520813 289.529785,267.477386 291.802795,273.502625 
	C291.471161,273.932465 291.139526,274.362335 290.807861,274.792206 
	C289.101776,273.555908 287.512390,271.529175 285.664032,271.256226 
	C282.336151,270.764709 278.795685,270.997284 275.459045,271.582886 
	C273.796143,271.874756 272.387787,273.616882 270.864288,274.703033 
	C270.410919,274.247589 269.957520,273.792114 269.504150,273.336670 
	C272.644714,266.180237 275.785248,259.023773 279.342529,251.862152 
M278.588348,262.662354 
	C278.272797,263.717834 277.957275,264.773285 277.560791,266.099579 
	C279.650604,266.099579 281.400146,266.099579 283.733795,266.099579 
	C282.721497,263.107208 281.817230,260.434265 280.680115,257.072968 
	C279.869995,259.207947 279.358276,260.556427 278.588348,262.662354 
z"/>
<path fill="#F3F3F3" opacity="1.000000" stroke="none" 
	d="
M265.783875,314.850830 
	C263.345612,315.028656 262.053986,314.278412 260.260956,312.883392 
	C258.121246,311.218658 253.741241,311.990997 250.437073,312.456055 
	C248.837143,312.681244 247.477783,314.615356 246.009506,315.775757 
	C245.637238,315.374542 245.264969,314.973297 244.892715,314.572083 
	C247.279648,308.090790 249.544327,301.559143 252.173584,295.177673 
	C252.613007,294.111176 254.605667,293.218414 255.936172,293.135315 
	C256.967957,293.070892 258.685883,294.160004 259.069214,295.139374 
	C261.592712,301.586365 263.836975,308.142609 265.783875,314.850830 
M253.090591,304.591949 
	C252.796463,305.505646 252.502350,306.419312 252.113998,307.625732 
	C254.304581,307.625732 256.213074,307.625732 258.631256,307.625732 
	C257.644409,304.616089 256.735870,301.845245 255.606094,298.399689 
	C254.670227,300.628418 253.994629,302.237366 253.090591,304.591949 
z"/>
<path fill="#F2F2F2" opacity="1.000000" stroke="none" 
	d="
M79.992653,301.947693 
	C81.635536,306.434113 83.204773,310.536865 85.255058,315.897339 
	C80.678040,313.951263 77.237022,311.387421 73.751976,311.326080 
	C70.480255,311.268555 67.162018,313.856079 62.691811,315.785889 
	C65.819038,307.447784 68.492752,300.318909 71.124619,293.301575 
	C79.041855,290.998138 77.709145,298.112213 79.992653,301.947693 
M71.098831,305.016327 
	C70.715759,311.067902 74.825966,306.380676 76.980103,307.155609 
	C75.959000,304.494659 74.937904,301.833740 73.657799,298.497833 
	C72.738037,300.989929 72.122734,302.657104 71.098831,305.016327 
z"/>
<path fill="#F0F0F0" opacity="1.000000" stroke="none" 
	d="
M161.548203,273.919250 
	C158.086685,274.538727 156.451950,273.473297 155.441452,270.281799 
	C153.554794,264.323029 151.078110,258.551025 148.841705,252.687668 
	C153.558456,251.393814 153.568710,251.389923 155.699585,257.017822 
	C156.919617,260.240021 158.099854,263.477264 159.561081,267.417084 
	C161.434143,262.872742 163.347305,259.038605 164.576019,254.996445 
	C165.572769,251.717377 167.355347,251.355469 170.682327,252.373077 
	C167.740341,259.597900 164.842926,266.713318 161.548203,273.919250 
z"/>
<path fill="#F2F2F2" opacity="1.000000" stroke="none" 
	d="
M333.426361,314.970306 
	C328.178284,315.029053 323.379364,315.029053 317.719330,315.029053 
	C319.122742,307.759552 325.111237,303.677582 327.855164,297.805969 
	C325.609344,294.798401 319.214447,300.356415 318.225861,293.223755 
	C323.859344,293.223755 328.919861,293.223755 335.467346,293.223755 
	C333.580444,296.623016 332.215302,299.392334 330.561676,301.977051 
	C328.786591,304.751648 326.740387,307.352783 324.381348,310.628357 
	C327.884094,310.628357 330.882477,310.628357 334.860840,310.628357 
	C334.429260,312.504456 334.152374,313.708008 333.426361,314.970306 
z"/>
<path fill="#EEEEEE" opacity="1.000000" stroke="none" 
	d="
M225.606567,261.281494 
	C229.491760,263.370605 230.255112,266.357971 228.857056,269.877136 
	C227.344559,273.684357 223.074402,274.962646 215.989883,273.900208 
	C215.989883,272.731140 215.989883,271.522095 215.989883,270.073242 
	C217.850983,270.187469 219.548721,270.636993 221.050873,270.274963 
	C222.259430,269.983643 223.231339,268.710541 224.308258,267.873077 
	C223.551117,266.919586 222.814560,265.948486 222.022446,265.024963 
	C221.823410,264.792938 221.460251,264.669830 221.148956,264.570740 
	C216.961472,263.237671 213.788742,261.092255 215.198746,256.005066 
	C216.179916,252.465118 220.851471,250.243271 225.517670,251.148163 
	C226.621765,251.362274 227.487198,252.807083 228.288223,253.528809 
	C224.902557,255.071960 222.484528,256.174072 220.066498,257.276184 
	C221.805954,258.548401 223.545425,259.820587 225.606567,261.281494 
z"/>
<path fill="#F3F3F3" opacity="1.000000" stroke="none" 
	d="
M364.062012,168.824951 
	C364.065948,165.880402 364.065948,163.399490 364.065948,160.581024 
	C368.708466,160.581024 373.090759,160.581024 377.760071,160.581024 
	C377.760071,164.721512 377.760071,168.811615 377.760071,173.232956 
	C373.400909,173.232956 369.002502,173.232956 364.301788,173.232956 
	C364.215485,171.836105 364.136780,170.562347 364.062012,168.824951 
z"/>
<path fill="#F3F3F3" opacity="1.000000" stroke="none" 
	d="
M180.248840,269.688354 
	C182.113068,269.988831 183.710236,269.687988 185.066025,270.129059 
	C186.322662,270.537811 187.321335,271.739563 188.433609,272.592133 
	C188.160873,272.999908 187.888138,273.407715 187.615402,273.815491 
	C183.548172,273.815491 179.480957,273.815491 175.194672,273.815491 
	C175.194672,266.611938 175.194672,259.549835 175.194672,251.850113 
	C178.732208,251.850113 182.307480,251.771774 185.873703,251.916504 
	C186.583038,251.945312 187.257706,252.828217 187.948349,253.317261 
	C187.208862,253.901871 186.525894,254.873779 185.718277,254.991653 
	C183.956955,255.248688 182.132202,255.071091 180.050064,255.071091 
	C180.050064,257.107666 180.050064,258.805420 180.050064,260.346558 
	C182.449081,261.936035 186.421463,259.127869 188.190186,263.805573 
	C185.080551,263.972168 182.815552,264.093506 179.876465,264.250977 
	C179.876465,265.943512 179.876465,267.677124 180.248840,269.688354 
z"/>
<path fill="#F3F3F3" opacity="1.000000" stroke="none" 
	d="
M299.804504,309.933716 
	C299.806091,304.144684 299.806091,298.850159 299.806091,293.266449 
	C304.065582,293.266449 308.141449,293.266449 312.237122,293.266449 
	C312.729919,296.431305 312.729919,296.431305 304.525604,297.191833 
	C304.432037,298.531952 304.334351,299.931244 304.207062,301.754150 
	C306.727783,301.754150 308.966949,301.754150 311.110352,301.754150 
	C311.970764,305.227081 311.970764,305.227081 304.267212,306.416901 
	C304.267212,307.130310 304.248444,307.913269 304.272369,308.694885 
	C304.297394,309.511414 304.363434,310.326721 304.412323,311.155396 
	C307.425232,311.737427 310.323700,312.297363 313.222168,312.857300 
	C313.100311,313.460724 312.978424,314.064117 312.856567,314.667542 
	C308.681549,314.667542 304.506531,314.667542 299.802917,314.667542 
	C299.802917,313.291901 299.802917,311.860046 299.804504,309.933716 
z"/>
<path fill="#F5F5F5" opacity="1.000000" stroke="none" 
	d="
M163.380722,299.881836 
	C164.808548,301.188080 166.221207,302.035828 167.672318,302.811707 
	C168.779404,303.403625 169.935181,303.904480 171.069305,304.445831 
	C169.946823,304.982544 168.871796,305.712708 167.688843,306.002991 
	C166.444717,306.308258 165.097351,306.192688 163.480164,306.277527 
	C163.480164,309.094513 163.480164,311.707886 163.480164,314.731537 
	C161.858368,314.820282 160.540665,314.892365 159.124146,314.969879 
	C159.124146,307.513519 159.124146,300.448120 159.124146,293.184448 
	C163.261459,293.184448 167.183777,293.184448 171.102676,293.184448 
	C171.454056,296.697662 171.427628,296.508240 168.457565,296.922546 
	C166.609177,297.180420 163.356247,295.125885 163.380722,299.881836 
z"/>
<path fill="#EEEEEE" opacity="1.000000" stroke="none" 
	d="
M145.984329,307.817078 
	C145.478149,312.116760 148.345520,311.044250 150.193893,311.019623 
	C152.752411,310.985504 154.558899,311.292755 153.392181,314.794281 
	C149.563248,314.794281 145.649063,314.794281 141.411072,314.794281 
	C141.411072,307.804199 141.411072,300.765411 141.411072,293.318268 
	C142.608536,293.183197 143.998001,293.026428 145.992050,292.801483 
	C145.992050,297.830597 145.992050,302.583740 145.984329,307.817078 
z"/>
<path fill="#E3E3E3" opacity="1.000000" stroke="none" 
	d="
M235.363098,264.942505 
	C235.363129,260.506470 235.363129,256.557526 235.363129,252.208206 
	C236.934875,252.054733 238.282761,251.923126 239.883911,251.766785 
	C239.883911,259.191528 239.883911,266.250275 239.883911,273.752228 
	C238.626923,273.847076 237.271057,273.949371 235.363068,274.093323 
	C235.363068,270.973724 235.363068,268.201630 235.363098,264.942505 
z"/>
<path fill="#FEFEFE" opacity="1.000000" stroke="none" 
	d="
M142.873688,273.971558 
	C141.458435,273.084229 139.754456,272.203888 139.717987,271.259186 
	C139.476547,265.008331 139.593140,258.743622 139.593140,252.201950 
	C141.029617,252.082031 142.266525,251.978775 144.392105,251.801331 
	C144.036911,259.395935 143.696594,266.672363 142.873688,273.971558 
z"/>
<path fill="#FEFEFE" opacity="1.000000" stroke="none" 
	d="
M212.899872,307.935455 
	C212.899872,302.828583 212.899872,298.214905 212.899872,293.270386 
	C214.322006,293.184937 215.532623,293.112152 217.037354,293.021729 
	C217.037354,300.351868 217.037354,307.387665 217.037354,314.762238 
	C215.870453,314.830109 214.652374,314.900970 212.899872,315.002899 
	C212.899872,312.623688 212.899872,310.526184 212.899872,307.935455 
z"/>
<path fill="#E3E3E3" opacity="1.000000" stroke="none" 
	d="
M276.752014,285.220337 
	C281.142334,285.863739 285.172150,286.663727 289.201935,287.463715 
	C289.033600,288.349945 288.865234,289.236176 288.696869,290.122406 
	C284.313660,289.762085 279.930420,289.401764 274.483612,288.953979 
	C275.204803,287.601868 275.798157,286.489410 276.752014,285.220337 
z"/>
<path fill="#E3E3E3" opacity="1.000000" stroke="none" 
	d="
M252.561417,288.844238 
	C254.457687,286.963135 256.544495,285.426880 258.789764,283.773956 
	C259.610748,284.904327 260.230499,285.757599 261.233856,287.139008 
	C257.893372,287.350891 256.640015,292.593475 252.561417,288.844238 
z"/>
<path fill="#080808" opacity="1.000000" stroke="none" 
	d="
M201.000031,174.060852 
	C217.606140,174.060852 233.712265,174.060852 250.030090,174.060852 
	C250.030090,179.757645 250.030090,185.008408 250.030090,190.521973 
	C217.168732,190.521973 184.470886,190.521973 151.484985,190.521973 
	C151.484985,185.004089 151.484985,179.786804 151.484985,174.060852 
	C167.971863,174.060852 184.235931,174.060852 201.000031,174.060852 
z"/>
<path fill="#0B0B0B" opacity="1.000000" stroke="none" 
	d="
M122.512604,297.047424 
	C125.239845,297.708771 128.982727,297.908722 129.574219,299.377625 
	C130.676575,302.115265 130.573654,305.776459 129.716141,308.682587 
	C129.278992,310.164032 125.934601,311.896484 124.233650,311.603516 
	C122.293701,311.269409 119.849899,309.114105 119.174034,307.202606 
	C117.877548,303.535858 118.274612,299.667328 122.512604,297.047424 
z"/>
<path fill="#0B0B0B" opacity="1.000000" stroke="none" 
	d="
M187.623840,311.736877 
	C182.115280,311.040192 179.499344,307.801086 180.210571,303.106415 
	C180.907944,298.503143 184.132462,295.529419 187.924789,297.027710 
	C190.024872,297.857391 192.114197,300.656555 192.694916,302.951019 
	C193.653305,306.737640 192.133957,310.135498 187.623840,311.736877 
z"/>
<path fill="#171717" opacity="1.000000" stroke="none" 
	d="
M233.249786,302.588135 
	C227.146301,303.116455 231.143265,298.866913 229.848099,297.133789 
	C230.077301,296.710510 230.306519,296.287262 230.535721,295.864014 
	C232.526825,296.663086 234.517914,297.462128 236.509003,298.261200 
	C235.545761,299.653229 234.582550,301.045258 233.249786,302.588135 
z"/>
<path fill="#0B0B0B" opacity="1.000000" stroke="none" 
	d="
M233.603088,305.890991 
	C234.957489,307.165192 235.882111,308.412140 236.806732,309.659119 
	C234.828323,310.635010 232.849915,311.610870 230.871506,312.586731 
	C230.584885,312.171234 230.298264,311.755707 230.011642,311.340210 
	C230.773056,309.369934 227.607193,305.455414 233.603088,305.890991 
z"/>
<path fill="#080808" opacity="1.000000" stroke="none" 
	d="
M262.313599,258.968567 
	C263.767242,267.346497 261.387146,270.106293 253.165710,269.803436 
	C253.165710,265.084778 253.165710,260.351532 253.165710,255.187347 
	C256.762878,254.938644 259.999847,255.137909 262.313599,258.968567 
z"/>
<path fill="#131313" opacity="1.000000" stroke="none" 
	d="
M103.113495,298.785889 
	C105.456703,302.343018 105.819717,306.031219 103.153801,308.636444 
	C101.247177,310.499664 97.940628,310.930298 94.588470,312.267487 
	C94.588470,306.373657 94.588470,301.969452 94.588470,296.382172 
	C97.554527,297.133636 100.203041,297.804626 103.113495,298.785889 
z"/>
<path fill="#171717" opacity="1.000000" stroke="none" 
	d="
M199.841187,261.749756 
	C199.190308,259.617645 198.950012,257.545746 198.709717,255.473862 
	C199.080948,255.144180 199.452164,254.814484 199.823395,254.484802 
	C201.523773,255.605759 203.224152,256.726715 204.924530,257.847656 
	C203.366943,259.168427 201.809357,260.489197 199.841187,261.749756 
z"/>
<path fill="#111111" opacity="1.000000" stroke="none" 
	d="
M301.215881,263.896973 
	C301.215668,260.811646 301.215668,258.190460 301.215668,253.888000 
	C304.900269,255.522400 308.692352,256.051910 310.141754,258.178253 
	C311.534058,260.220856 311.576324,264.608856 310.235443,266.697327 
	C308.832703,268.882202 305.075378,269.555359 301.216064,271.442444 
	C301.216064,267.904724 301.216064,266.132904 301.215881,263.896973 
z"/>
<path fill="#171717" opacity="1.000000" stroke="none" 
	d="
M278.717468,262.283630 
	C279.358276,260.556427 279.869995,259.207947 280.680115,257.072968 
	C281.817230,260.434265 282.721497,263.107208 283.733795,266.099579 
	C281.400146,266.099579 279.650604,266.099579 277.560791,266.099579 
	C277.957275,264.773285 278.272797,263.717834 278.717468,262.283630 
z"/>
<path fill="#252525" opacity="1.000000" stroke="none" 
	d="
M253.204803,304.219116 
	C253.994629,302.237366 254.670227,300.628418 255.606094,298.399689 
	C256.735870,301.845245 257.644409,304.616089 258.631256,307.625732 
	C256.213074,307.625732 254.304581,307.625732 252.113998,307.625732 
	C252.502350,306.419312 252.796463,305.505646 253.204803,304.219116 
z"/>
<path fill="#252525" opacity="1.000000" stroke="none" 
	d="
M71.303131,304.670288 
	C72.122734,302.657104 72.738037,300.989929 73.657799,298.497833 
	C74.937904,301.833740 75.959000,304.494659 76.980103,307.155609 
	C74.825966,306.380676 70.715759,311.067902 71.303131,304.670288 
z"/>
</svg>